<svg id="global" xmlns="http://www.w3.org/2000/svg" width="23.648" height="23.648" viewBox="0 0 23.648 23.648">
  <g id="Group_20614" data-name="Group 20614" transform="translate(0 0)">
    <path id="Path_25151" data-name="Path 25151" d="M20.185,3.463A11.824,11.824,0,0,0,3.463,20.185,11.824,11.824,0,0,0,20.185,3.463ZM9.582,1.629A15.131,15.131,0,0,0,8.328,3.01,14.377,14.377,0,0,0,6.485,5.979H3.18A10.467,10.467,0,0,1,9.582,1.629ZM2.388,7.364H5.936a13.9,13.9,0,0,0-.7,3.767H1.409A10.361,10.361,0,0,1,2.388,7.364Zm-.979,5.153H5.236a13.9,13.9,0,0,0,.7,3.767H2.388A10.361,10.361,0,0,1,1.409,12.517ZM3.18,17.67H6.485a14.378,14.378,0,0,0,1.842,2.969,15.118,15.118,0,0,0,1.254,1.381A10.467,10.467,0,0,1,3.18,17.67Zm7.951,3.891a13.621,13.621,0,0,1-1.723-1.789,13.2,13.2,0,0,1-1.384-2.1h3.106Zm0-5.277H7.4a12.4,12.4,0,0,1-.777-3.767h4.508Zm0-5.153H6.623A12.4,12.4,0,0,1,7.4,7.364h3.731Zm0-5.153H8.025A13.193,13.193,0,0,1,9.376,3.918a13.616,13.616,0,0,1,1.756-1.828Zm11.108,5.153H18.413a13.9,13.9,0,0,0-.7-3.767h3.548A10.36,10.36,0,0,1,22.239,11.131ZM20.468,5.979H17.163A14.378,14.378,0,0,0,15.321,3.01a15.118,15.118,0,0,0-1.254-1.381A10.466,10.466,0,0,1,20.468,5.979ZM12.517,2.087A13.62,13.62,0,0,1,14.24,3.876a13.2,13.2,0,0,1,1.384,2.1H12.517Zm0,5.277h3.731a12.4,12.4,0,0,1,.777,3.767H12.517Zm0,5.153h4.508a12.4,12.4,0,0,1-.778,3.767H12.517Zm0,9.042V17.67h3.106a13.19,13.19,0,0,1-1.351,2.061A13.617,13.617,0,0,1,12.517,21.559Zm1.55.46a15.131,15.131,0,0,0,1.254-1.381,14.377,14.377,0,0,0,1.842-2.969h3.305A10.467,10.467,0,0,1,14.067,22.019Zm7.194-5.735H17.713a13.9,13.9,0,0,0,.7-3.767h3.827A10.36,10.36,0,0,1,21.261,16.284Z" transform="translate(0 0)" fill="#fff"/>
  </g>
</svg>
