<svg id="instagram" xmlns="http://www.w3.org/2000/svg" width="19.176" height="19.174" viewBox="0 0 19.176 19.174">
  <path id="Path_2176" data-name="Path 2176" d="M13.983,0H5.189A5.2,5.2,0,0,0,0,5.19v8.794a5.2,5.2,0,0,0,5.19,5.19h8.794a5.2,5.2,0,0,0,5.19-5.19V5.19A5.2,5.2,0,0,0,13.983,0Zm-4.4,14.83a5.243,5.243,0,1,1,5.243-5.243A5.249,5.249,0,0,1,9.586,14.83Zm5.368-9.249A1.549,1.549,0,1,1,16.5,4.032,1.551,1.551,0,0,1,14.954,5.581Zm0,0" transform="translate(0.001 0)" fill="#fff"/>
  <path id="Path_2177" data-name="Path 2177" d="M150.139,146.02a4.119,4.119,0,1,0,4.119,4.119A4.123,4.123,0,0,0,150.139,146.02Zm0,0" transform="translate(-140.552 -140.552)" fill="#fff"/>
  <path id="Path_2178" data-name="Path 2178" d="M388.417,96.3a.425.425,0,1,0,.425.425A.426.426,0,0,0,388.417,96.3Zm0,0" transform="translate(-373.462 -92.694)" fill="#fff"/>
</svg>
