<svg id="twitter" xmlns="http://www.w3.org/2000/svg" width="23.6" height="19.174" viewBox="0 0 23.6 19.174">
  <g id="Group_942" data-name="Group 942" transform="translate(0 0)">
    <path id="Path_2175" data-name="Path 2175" d="M23.6,50.27a10.086,10.086,0,0,1-2.788.764,4.811,4.811,0,0,0,2.128-2.674,9.668,9.668,0,0,1-3.068,1.171A4.838,4.838,0,0,0,11.5,52.839a4.982,4.982,0,0,0,.112,1.1,13.694,13.694,0,0,1-9.972-5.061A4.839,4.839,0,0,0,3.13,55.348a4.778,4.778,0,0,1-2.186-.6v.053A4.86,4.86,0,0,0,4.82,59.559a4.829,4.829,0,0,1-1.268.159,4.277,4.277,0,0,1-.916-.083,4.884,4.884,0,0,0,4.521,3.37,9.721,9.721,0,0,1-6,2.063A9.062,9.062,0,0,1,0,65a13.62,13.62,0,0,0,7.422,2.171,13.675,13.675,0,0,0,13.77-13.767c0-.214-.007-.42-.018-.625A9.651,9.651,0,0,0,23.6,50.27Z" transform="translate(0 -48)" fill="#fff"/>
  </g>
</svg>
